<?xml version="1.0" encoding="UTF-8" standalone="no"?>
<!-- Created with Inkscape (http://www.inkscape.org/) -->

<svg
   xmlns:dc="http://purl.org/dc/elements/1.1/"
   xmlns:cc="http://creativecommons.org/ns#"
   xmlns:rdf="http://www.w3.org/1999/02/22-rdf-syntax-ns#"
   xmlns:svg="http://www.w3.org/2000/svg"
   xmlns="http://www.w3.org/2000/svg"
   xmlns:sodipodi="http://sodipodi.sourceforge.net/DTD/sodipodi-0.dtd"
   xmlns:inkscape="http://www.inkscape.org/namespaces/inkscape"
   width="210mm"
   height="297mm"
   viewBox="0 0 210 297"
   version="1.1"
   id="svg8"
   inkscape:version="0.92.5 (2060ec1f9f, 2020-04-08)"
   sodipodi:docname="eden-ecco.svg">
  <defs
     id="defs2" />
  <sodipodi:namedview
     id="base"
     pagecolor="#ffffff"
     bordercolor="#666666"
     borderopacity="1.0"
     inkscape:pageopacity="0.0"
     inkscape:pageshadow="2"
     inkscape:zoom="0.49497475"
     inkscape:cx="-69.351543"
     inkscape:cy="445.76893"
     inkscape:document-units="mm"
     inkscape:current-layer="layer1"
     showgrid="false"
     inkscape:window-width="1916"
     inkscape:window-height="1074"
     inkscape:window-x="0"
     inkscape:window-y="0"
     inkscape:window-maximized="1" />
  <metadata
     id="metadata5">
    <rdf:RDF>
      <cc:Work
         rdf:about="">
        <dc:format>image/svg+xml</dc:format>
        <dc:type
           rdf:resource="http://purl.org/dc/dcmitype/StillImage" />
        <dc:title></dc:title>
      </cc:Work>
    </rdf:RDF>
  </metadata>
  <g
     inkscape:label="Layer 1"
     inkscape:groupmode="layer"
     id="layer1">
    <g
       id="g4634"
       transform="matrix(0.98974838,0,0,0.98974838,-0.04773294,2.2381804)">
      <path
         id="rect4624"
         transform="scale(0.26458333)"
         d="m 486.70117,346.91992 c -1.38619,0.0109 -2.86124,0.0591 -4.46289,0.13672 -9.75492,0.47244 -12.57528,1.19006 -19.73828,5.01563 -9.96971,5.32463 -16.68829,12.38942 -21.46289,22.57226 -3.03088,6.46413 -3.51109,9.23332 -3.49219,20.16016 0.0196,11.57189 0.38241,13.3611 4.19531,20.68945 4.63219,8.90298 14.51494,18.92358 22.86524,23.18359 6.73232,3.43454 13.54145,14.5179 22.89453,37.27149 6.96249,16.93818 13.55553,29.95321 17.32031,34.18945 1.30352,1.46669 2.98351,3.86734 3.73242,5.33399 1.70899,3.34677 12.39132,31.72534 18.52735,49.2207 11.83759,33.75141 23.34994,48.21126 43.77734,54.98633 8.8258,2.92724 25.15183,1.62623 34.93555,-2.78516 15.87968,-7.16005 29.64566,-25.4217 34.14258,-45.29101 1.14538,-5.06087 2.80043,-9.64529 3.67773,-10.1875 5.91269,-3.65428 20.364,-20.10591 24.36524,-27.73829 15.52928,-29.62321 12.17405,-68.88257 -8.96485,-104.87304 -3.87639,-6.6 -9.34612,-16.19868 -12.15429,-21.33203 -22.64372,-41.3906 -61.79813,-61.98311 -100.66993,-52.94532 -6.23331,1.44923 -13.28249,3.43678 -15.66601,4.41602 -4.06439,1.66991 -4.96505,1.46695 -14.50586,-3.25391 -14.24481,-7.04856 -19.61308,-8.8459 -29.31641,-8.76953 z m 83.48828,56.55274 c 11.0002,0 13.68726,0.47723 20.41407,3.6289 9.8903,4.63389 20.06615,15.14263 31.11132,32.12696 13.24071,20.36016 17.52882,30.35556 23.27344,54.24414 4.3759,18.19638 5.01106,24.02262 3.84375,35.33203 -2.21998,21.50952 -13.21919,39.48341 -28.64258,46.80859 -9.37081,4.45032 -20.46641,4.3597 -29.70507,-0.24414 -12.37932,-6.16887 -18.33101,-15.76394 -25.70313,-41.44141 -2.91428,-10.15033 -6.31092,-21.99453 -7.54883,-26.32031 -1.2768,-4.46192 -4.18882,-10.18473 -6.72851,-13.22461 -2.46221,-2.94716 -5.36848,-7.08277 -6.45899,-9.1914 -1.09051,-2.10864 -4.34717,-6.95893 -7.23828,-10.77735 -6.74358,-8.90691 -9.2832,-16.50954 -9.2832,-27.79687 0,-16.93153 8.2699,-31.10856 22.85937,-39.18946 6.51013,-3.60582 8.25822,-3.95507 19.80664,-3.95507 z"
         style="opacity:1;fill:#f5e507;fill-opacity:1;stroke:#f5e507;stroke-width:7.80472374;stroke-linejoin:miter;stroke-miterlimit:4;stroke-dasharray:none;stroke-opacity:1"
         inkscape:connector-curvature="0" />
      <g
         id="g87">
        <path
           inkscape:connector-curvature="0"
           id="path79"
           d="m 110.99899,217.48408 c -2.42535,-0.47543 -5.4235,-1.02049 -6.66256,-1.21127 -1.2391,-0.19076 -3.22347,-0.75611 -4.409719,-1.25631 -1.18629,-0.50023 -2.90707,-1.04325 -3.82394,-1.20674 -2.00441,-0.35741 -7.743894,-2.87863 -9.395529,-4.12724 -1.110438,-0.83946 -1.298716,-0.87143 -2.998611,-0.50912 -2.55404,0.54434 -4.141858,0.76084 -8.05247,1.09794 -3.008806,0.25935 -3.661233,0.4427 -5.468055,1.53662 -2.749902,1.66489 -5.142956,2.2644 -9.989114,2.50249 -4.617935,0.22686 -7.654984,-0.25757 -10.877828,-1.73514 -1.09921,-0.50396 -3.208803,-1.12806 -4.687993,-1.3869 -2.879736,-0.50392 -10.594872,-3.72928 -13.257783,-5.54249 -0.815827,-0.55551 -2.138645,-1.78719 -2.939588,-2.73706 -1.303567,-1.54596 -4.021797,-3.19994 -5.258915,-3.19994 -0.515334,0 -7.161064,-2.85392 -10.131809,-4.35096 -3.2131745,-1.61921 -4.8076525,-3.13689 -8.5627345,-8.15027 -3.4586054,-4.61755 -5.6177817,-9.11786 -6.3670217,-13.27058 -0.2256578,-1.25071 -0.7110306,-2.91643 -1.0786144,-3.70159 -2.0259921,-4.32756 -2.2537031,-10.01244 -0.5737684,-14.32436 0.6176327,-1.58529 0.9376057,-3.27055 1.0950504,-5.76752 0.4454172,-7.06401 2.250267,-12.9032 6.5969761,-21.34306 3.936696,-7.64375 5.474878,-9.61777 14.3128435,-18.36835 8.92587,-8.83764 10.470214,-9.9421 16.777905,-11.998975 1.791596,-0.58422 3.849695,-1.47129 4.573552,-1.97126 1.56754,-1.0827 4.942953,-2.31321 13.500562,-4.92161 10.424738,-3.17752 12.026748,-3.43506 18.697221,-3.00579 6.882236,0.4429 8.347569,0.89748 11.096307,3.44234 2.398148,2.22024 3.54397,2.47988 3.54397,0.80304 0,-1.97417 -1.036637,-5.15125 -2.287058,-7.00938 -0.67497,-1.002986 -1.387792,-2.486865 -1.584043,-3.297506 -1.498388,-6.189045 -3.545416,-10.960667 -5.853535,-13.644724 -2.504123,-2.911918 -3.243086,-4.183813 -3.88052,-6.679007 -1.635796,-6.402875 2.189056,-12.773407 8.812106,-14.677158 2.709404,-0.778799 5.336681,-0.489948 8.18769,0.900184 3.030466,1.477633 4.747157,3.513748 7.223267,8.567365 1.72113,3.512666 2.27425,5.100269 2.976239,8.542532 1.14124,5.596055 1.96356,11.497716 2.23566,16.044482 l 0.22158,3.702561 1.3595,0.638962 c 1.7392,0.817428 2.83379,0.573475 4.89282,-1.090457 2.72207,-2.199736 7.44555,-5.619665 8.56435,-6.200832 3.26972,-1.698441 8.26427,-3.845693 9.99969,-4.299048 8.30464,-2.169488 18.98298,-2.50063 25.74343,-0.798322 2.23157,0.561908 8.11805,4.594221 12.1091,8.294849 2.00787,1.861774 5.71115,4.688216 9.03608,6.896569 3.09863,2.05805 6.59494,4.63169 7.76958,5.71919 3.86888,3.58189 8.25221,10.984145 9.97881,16.851455 0.41529,1.41121 1.12103,3.51834 1.56828,4.68251 0.44725,1.16417 1.13608,3.70417 1.53074,5.64445 0.39465,1.94027 1.04401,5.1169 1.443,7.05917 0.87094,4.23959 0.94781,9.41206 0.19918,13.40194 -0.29122,1.55222 -0.77086,4.39599 -1.06582,6.31949 -0.76288,4.97484 -3.36613,13.21448 -6.25122,19.78606 -1.36295,3.10444 -2.5939,5.80319 -2.73544,5.99722 -0.14157,0.19403 -0.51593,1.12906 -0.83195,2.07784 -0.86025,2.58277 -2.12972,4.54003 -4.08475,6.29775 -0.96537,0.86796 -2.33743,2.35478 -3.04902,3.30404 -1.82326,2.43226 -4.34696,4.9877 -5.7972,5.87017 -2.24116,1.36375 -5.43358,3.86644 -7.76111,6.0843 -4.72006,4.49769 -8.47707,6.86965 -21.87222,13.80891 -0.87312,0.45231 -2.63803,0.96866 -3.922,1.14744 -1.28401,0.17877 -2.85556,0.59448 -3.4924,0.9238 -4.46225,2.30752 -8.88287,3.69104 -11.81213,3.69684 -1.16423,0.002 -3.22798,0.23956 -4.58611,0.52723 -3.1272,0.66239 -3.33907,0.65291 -8.64291,-0.38677 z m -46.622721,-16.1684 c 3.461208,-0.92128 5.375169,-2.78631 5.595831,-5.45278 0.164218,-1.98489 -0.97229,-4.18825 -2.552135,-4.94783 -1.805884,-0.86823 -5.343479,-0.69299 -7.585921,0.37581 -1.073845,0.51182 -2.164846,1.18651 -2.424444,1.49931 -0.259599,0.3128 -0.6731,0.56873 -0.918888,0.56873 -0.245787,0 -0.812616,0.29615 -1.259617,0.65811 -0.666094,0.53936 -0.807798,0.98484 -0.785404,2.46914 0.0459,3.04252 1.434331,4.44306 4.906966,4.94974 2.962497,0.43225 2.946555,0.43262 5.023612,-0.12023 z M 58.64031,199.3834 c -1.581189,-0.32975 -2.321874,-1.14376 -2.321874,-2.55172 0,-0.65828 0.259754,-1.11243 0.79375,-1.38777 0.436563,-0.2251 1.126359,-0.71151 1.532884,-1.08092 1.353117,-1.22959 3.42599,-2.0624 5.133325,-2.0624 2.268753,0 3.337757,0.47295 4.010786,1.77448 0.958039,1.85261 0.121991,3.69336 -2.228307,4.90624 -1.041876,0.53767 -5.131215,0.77526 -6.920564,0.40209 z m -5.15692,-1.24654 c 0.655087,-0.78933 0.198445,-1.13592 -1.831343,-1.38999 -4.491739,-0.56225 -8.03361,-2.28522 -8.03361,-3.908 0,-1.83337 3.715201,-4.75788 5.076475,-3.99608 0.473936,0.26523 0.780485,0.22147 1.168807,-0.16686 0.663739,-0.66373 0.118056,-1.85605 -1.01388,-2.2153 -1.854962,-0.58875 -7.349684,3.98668 -7.346749,6.11759 0.0032,2.38491 2.626265,4.5376 6.525069,5.35515 1.164166,0.24412 2.275416,0.49283 2.469444,0.55268 0.967593,0.2985 2.60742,0.10673 2.985787,-0.34919 z m -12.863564,-6.69745 c 0,-0.56826 -0.413989,-0.76119 -2.432861,-1.1338 -3.127503,-0.57723 -4.889448,-1.74396 -6.028679,-3.99214 -1.533289,-3.0258 -0.999091,-4.45679 2.035675,-5.45313 3.202749,-1.0515 4.651393,-0.49299 5.159012,1.98899 0.287979,1.40806 1.047502,1.50358 1.766729,0.22219 0.479164,-0.85369 0.464396,-1.05797 -0.162861,-2.25332 -0.820448,-1.56351 -2.401929,-2.63189 -3.864792,-2.61089 -0.582083,0.008 -2.169583,0.38112 -3.527778,0.82837 -3.253217,1.07127 -4.184135,2.2845 -3.981133,5.18843 0.318869,4.56138 4.624137,8.19399 9.449188,7.97284 1.311278,-0.0601 1.5875,-0.19191 1.5875,-0.75754 z m -13.405555,-8.13466 c 0,-0.55526 -0.300585,-0.74734 -1.411111,-0.90175 -0.776112,-0.1079 -2.522361,-0.64324 -3.880555,-1.18963 -8.178214,-3.29004 -12.5236105,-6.84739 -12.5236105,-10.25242 0,-1.81741 1.7141545,-5.39822 3.3830825,-7.06715 3.314072,-3.31407 8.862402,-0.75519 10.51642,4.85015 0.676889,2.29392 1.978364,4.01084 2.801032,3.69515 0.811335,-0.31133 0.734313,-1.08297 -0.31702,-3.17613 -1.004323,-1.99956 -0.933926,-3.08531 0.284683,-4.39085 0.895202,-0.95906 1.535795,-1.00981 1.991788,-0.15778 0.511539,0.95582 3.669489,2.53903 5.064484,2.53903 2.299144,0 4.208152,-2.46869 3.30773,-4.27749 -0.849828,-1.70716 -4.698905,-2.63273 -7.120202,-1.71215 -0.672779,0.25579 -1.088598,0.24352 -1.432955,-0.0423 -0.872564,-0.72416 -1.898488,-4.83019 -1.898488,-7.59827 0,-2.03144 -0.121782,-2.66648 -0.542307,-2.82785 -1.086037,-0.41676 -2.588895,1.89627 -1.62082,2.49458 0.168476,0.10412 0.412503,1.10568 0.542283,2.22568 0.129783,1.12001 0.593707,3.0912 1.030944,4.38043 l 0.794977,2.34407 -1.16562,1.2719 c -1.367225,1.4919 -1.604846,1.54004 -2.307586,0.46754 -0.817108,-1.24708 -3.274808,-2.78869 -4.932761,-3.09415 -2.408093,-0.44363 -4.367664,0.0998 -5.964759,1.65428 -1.561465,1.51977 -3.7296945,5.59519 -4.0579505,7.62737 -0.665276,4.11859 4.0633685,8.55006 13.2847115,12.44981 4.084595,1.7274 6.173611,1.96017 6.173611,0.6879 z m 3.698664,-18.47451 c -0.734572,-0.39395 -1.229219,-0.92631 -1.229219,-1.32293 0,-0.53738 0.306165,-0.68361 1.609046,-0.76848 2.010884,-0.13097 3.50623,0.4065 3.50623,1.26024 0,1.55575 -1.812251,1.94337 -3.886057,0.83117 z m 129.369775,-1.61038 c 4.20151,-1.89443 7.84384,-6.7259 9.03365,-11.983 0.30304,-1.33901 0.74091,-2.55193 0.97303,-2.69538 1.5644,-0.96686 5.38812,-5.32007 6.44677,-7.33946 4.1088,-7.83781 3.22079,-18.22479 -2.37222,-27.74726 -1.02563,-1.74625 -2.47276,-4.28625 -3.21578,-5.64445 -5.99115,-10.951265 -16.35044,-16.399485 -26.63528,-14.008235 -1.64924,0.38344 -3.51455,0.90916 -4.14518,1.16825 -1.07537,0.44183 -1.31357,0.38841 -3.8379,-0.86065 -4.30738,-2.13135 -5.54719,-2.4482 -8.93734,-2.28401 -2.581,0.125 -3.32765,0.31469 -5.22284,1.32687 -2.63783,1.40881 -4.41523,3.27817 -5.67849,5.97238 -0.80194,1.710305 -0.92887,2.442935 -0.92393,5.334005 0.005,3.06173 0.10114,3.53483 1.10998,5.47379 1.22559,2.35558 3.84059,5.00691 6.04993,6.13404 1.78125,0.90872 3.58256,3.84144 6.05723,9.86166 1.84217,4.48156 3.58666,7.92494 4.58276,9.04578 0.34487,0.38806 0.7892,1.02306 0.98735,1.41112 0.45216,0.8855 3.2784,8.39402 4.90189,13.023 3.87216,11.04041 8.28456,15.19927 15.81626,14.90742 2.17043,-0.0841 3.32754,-0.3372 5.01011,-1.09587 z"
           style="fill:#40ce0e;stroke-width:0.35277775" />
      </g>
    </g>
    <g
       id="g4629"
       transform="matrix(1.0438841,0,0,1.0438841,11.545227,-9.3133517)">
      <path
         id="rect4621"
         transform="scale(0.26458333)"
         d="m -518.99805,348.4707 c -6.37848,-0.03 -12.39757,1.48462 -18.88672,4.48438 -21.56269,9.96782 -31.79939,37.28578 -22.00781,58.72851 4.14629,9.07994 10.65141,16.31752 20.30274,22.58594 3.78776,2.46013 8.06201,6.13792 9.49804,8.17188 3.82511,5.41776 10.54853,19.15507 16.46485,33.64453 2.85626,6.99522 8.45234,18.11875 12.43554,24.71875 7.13628,11.82448 11.0934,21.13614 22.95118,54 12.255,33.96468 21.961,46.06136 42.43164,52.88476 8.0482,2.68271 23.02859,1.3938 32.10547,-2.76172 14.83637,-6.79234 29.92544,-26.91714 32.10546,-42.82226 0.77191,-5.63165 1.98095,-7.40757 11.66602,-17.125 15.18723,-15.23795 21.97021,-28.7994 23.55078,-48.375 v -20.11719 c -1.38758,-18.0211 -6.91712,-32.61688 -20.58008,-56.34961 -4.01072,-6.96665 -9.29177,-16.20439 -11.73633,-20.52734 -5.6437,-9.98026 -19.05067,-24.51229 -28.24218,-30.61328 -9.1962,-6.10409 -24.9735,-12.33572 -36.16797,-14.28516 -10.35451,-1.80317 -23.33935,-0.31622 -37.31446,4.27149 l -8.80468,2.89062 -11.625,-5.5 c -11.15094,-5.27474 -19.94557,-7.86576 -28.14649,-7.9043 z m 81.875,53.66797 c 9.39939,0 11.76708,0.53099 19.65821,4.41211 10.76795,5.29603 18.27462,13.37452 31.21289,33.58789 10.1421,15.84492 16.98374,33.46949 21.81054,56.18555 2.62585,12.35781 2.84041,15.54194 1.67188,24.69531 -2.18467,17.11306 -6.27414,26.4768 -15.72461,35.99414 -6.38253,6.42769 -9.70318,8.66738 -15.30859,10.33203 -8.44967,2.50927 -12.0843,2.54925 -19.55469,0.21289 -13.99348,-4.37642 -21.71027,-15.1263 -28.91602,-40.28125 -2.70005,-9.42572 -5.90412,-20.62128 -7.12109,-24.87695 -1.21697,-4.25567 -4.35838,-10.65823 -6.98047,-14.22851 -2.62209,-3.57034 -5.83165,-8.18771 -7.13086,-10.26172 -1.29925,-2.07402 -4.43185,-6.66452 -6.96289,-10.20118 -5.58195,-7.79973 -7.32643,-13.62167 -7.33398,-24.51953 -0.0147,-16.34226 8.81454,-30.62993 23.34765,-37.78125 5.37816,-2.64642 8.68383,-3.26953 17.33203,-3.26953 z"
         style="opacity:1;fill:#f5e507;fill-opacity:1;stroke:#f5e507;stroke-width:7.80472374;stroke-linejoin:miter;stroke-miterlimit:4;stroke-dasharray:none;stroke-opacity:1"
         inkscape:connector-curvature="0" />
      <path
         style="fill:#fd0202;stroke-width:0.35277775"
         d="m -149.70378,212.17572 c -0.48507,-0.0752 -2.94569,-0.52011 -5.46805,-0.9887 -2.52236,-0.46859 -5.18786,-0.94939 -5.92333,-1.06844 -0.73548,-0.11905 -2.08485,-0.5397 -2.99862,-0.93478 -0.91376,-0.39507 -2.79417,-1.01052 -4.17868,-1.36769 -2.47615,-0.63875 -6.76694,-2.58832 -8.69592,-3.95108 -0.59182,-0.4181 -1.22323,-0.59843 -1.5875,-0.45338 -1.06379,0.42359 -6.88566,1.22328 -8.95332,1.22982 -1.64591,0.005 -2.46916,0.2557 -4.66646,1.41988 -3.6296,1.92304 -5.95721,2.467 -10.55617,2.467 -4.04268,0 -6.64081,-0.49151 -9.62264,-1.82041 -0.95219,-0.42436 -2.89689,-0.97649 -4.32156,-1.22696 -1.7079,-0.30026 -4.23164,-1.20592 -7.40834,-2.65853 -4.31121,-1.9714 -5.05922,-2.45 -7.11107,-4.54972 -2.40702,-2.46318 -3.60324,-3.24389 -5.64444,-3.68387 -1.29942,-0.28007 -2.869,-0.95634 -8.64306,-3.72389 -3.9987,-1.91661 -5.13584,-2.9429 -9.13151,-8.2414 -2.94766,-3.90876 -5.25902,-8.68721 -6.03376,-12.47405 -0.26634,-1.30184 -0.92391,-3.47825 -1.46125,-4.83644 -0.84933,-2.14677 -0.97676,-2.95346 -0.97516,-6.17361 0.002,-3.15989 0.1363,-4.0411 0.91703,-5.99722 0.68353,-1.71261 0.97327,-3.23071 1.14461,-5.99723 0.38308,-6.18544 1.85987,-11.02311 5.7545,-18.85064 3.76311,-7.56319 5.7952,-10.22848 14.02056,-18.38928 8.2694,-8.2045 9.83619,-9.30484 16.0017,-11.237795 1.62283,-0.50878 3.60721,-1.3831 4.40972,-1.94294 1.55246,-1.083 5.06846,-2.3584 12.21884,-4.43227 2.42534,-0.70345 4.96534,-1.48917 5.64444,-1.74606 0.6791,-0.25689 2.60915,-0.73826 4.289,-1.06971 2.64416,-0.52172 3.7692,-0.55325 8.37861,-0.2348 6.16736,0.42608 7.7734,0.9588 10.26352,3.40442 1.92375,1.88936 3.29762,2.21802 3.4587,0.8274 0.18162,-1.56786 -0.92569,-5.076 -2.19979,-6.969301 -0.70772,-1.051662 -1.37935,-2.637243 -1.62092,-3.826672 -0.55961,-2.755318 -3.0524,-9.155945 -4.15711,-10.674007 -0.49419,-0.679097 -1.51301,-1.914222 -2.26405,-2.744717 -2.09961,-2.321737 -2.85781,-4.338893 -2.88004,-7.662227 -0.0229,-3.417117 1.00046,-5.978104 3.31264,-8.290278 4.50772,-4.507726 11.97261,-4.399055 16.24551,0.236495 2.25538,2.446792 5.49948,9.439641 6.35484,13.698227 1.11171,5.534829 1.80099,10.587319 2.04541,14.993055 l 0.22507,4.056944 1.43369,0.495685 c 1.78192,0.616076 2.86178,0.359191 4.66883,-1.110679 5.52053,-4.490444 11.42381,-7.905689 16.52416,-9.559773 2.66746,-0.865081 8.81218,-1.994122 12.13777,-2.230218 3.38332,-0.240193 10.53144,0.365287 13.2174,1.119575 2.44739,0.687292 7.46421,4.100883 11.48527,7.81491 1.92124,1.774546 5.796829,4.731251 8.995832,6.862961 3.563697,2.37473 6.413037,4.57565 7.786514,6.01455 3.352863,3.51258 6.555771,8.814595 8.169458,13.523535 2.187762,6.38418 3.586829,11.25137 3.954815,13.75834 0.227845,1.55222 0.632104,3.69534 0.898352,4.7625 0.759636,3.04468 0.955485,6.29581 0.552542,9.17222 -1.1176,7.97795 -1.949746,12.19681 -3.217767,16.31363 -0.776073,2.51962 -1.411037,4.72509 -1.411037,4.90104 0,0.38269 -5.971272,14.16393 -7.269328,16.77706 -0.500525,1.00761 -1.80812,2.68124 -2.905774,3.71917 -1.097651,1.03793 -2.906092,3.02746 -4.018756,4.42118 -1.112661,1.39372 -2.700161,2.97056 -3.527778,3.50411 -2.429485,1.56624 -6.724523,4.8824 -7.678363,5.92841 -1.21957,1.3374 -5.07701,4.38991 -7.40833,5.86244 -2.4586,1.55292 -5.56553,3.26136 -13.82159,7.60023 -0.51985,0.2732 -1.86922,0.67339 -2.99861,0.88931 -1.12938,0.21592 -3.87904,1.14751 -6.11036,2.07022 -5.15076,2.12996 -6.33958,2.44492 -9.23745,2.44734 -1.29706,0.001 -2.72581,0.13815 -3.175,0.3046 -1.06157,0.39337 -4.09996,0.69713 -5.22644,0.52251 z m -51.92763,-17.49858 c 0.20343,-0.24512 0.56324,-1.23731 0.79958,-2.20487 0.54875,-2.24652 0.81518,-2.7501 2.35913,-4.45907 2.7592,-3.0541 4.61486,-3.00736 3.89363,0.0981 -0.80011,3.44509 0.44148,4.54209 5.1408,4.54209 3.63696,0 6.92616,-1.01724 6.92616,-2.14202 0,-0.78204 -1.02489,-0.91173 -2.20671,-0.27924 -1.13382,0.6068 -5.44433,0.98366 -6.84079,0.59808 -1.56034,-0.43082 -1.72477,-0.91579 -1.18035,-3.48124 0.35675,-1.68106 0.357,-2.19967 0.001,-2.62828 -0.66798,-0.80487 -3.3785,-0.69114 -4.62143,0.1939 -1.17146,0.83407 -1.73268,0.65542 -1.73268,-0.55147 0,-1.9415 -1.52796,-1.30435 -2.11688,0.88272 -0.2684,0.99676 -0.84139,1.69463 -2.28839,2.78713 -2.28566,1.72568 -2.94974,2.0054 -5.52513,2.32717 -2.24241,0.28016 -3.12238,-0.25381 -3.12238,-1.89473 0,-1.32624 0.60238,-1.80924 2.25645,-1.80924 3.80227,0 6.12756,-4.3842 2.96227,-5.5852 -1.74125,-0.66067 -2.84427,-0.32569 -4.48102,1.36089 -0.74838,0.77115 -1.51341,1.40208 -1.70007,1.40208 -0.18667,0 -0.62672,0.3175 -0.97791,0.70556 -0.8471,0.93603 -1.10094,0.89131 -1.50402,-0.26496 -0.18608,-0.53378 -0.75723,-1.58781 -1.26923,-2.34228 -0.73468,-1.0826 -0.93091,-1.79248 -0.93091,-3.36756 0,-1.7696 0.1784,-2.2674 1.57407,-4.39236 1.69117,-2.57485 3.01204,-5.69703 3.01204,-7.11965 0,-1.12491 -0.88997,-1.47213 -1.75853,-0.6861 -0.79112,0.71595 -3.19639,5.57934 -4.02529,8.139 -0.31776,0.98128 -1.0544,2.33065 -1.63697,2.99862 l -1.05922,1.21446 -0.56553,-0.79375 c -1.52613,-2.14203 -7.12814,0.50473 -8.76875,4.14294 -0.60835,1.34909 -0.61237,1.48229 -0.0613,2.03333 0.55104,0.55104 0.74032,0.51538 2.88932,-0.54434 1.26481,-0.62371 2.53764,-1.13401 2.82852,-1.13401 0.29087,0 1.58495,-0.64159 2.87571,-1.42576 2.48418,-1.50919 3.28402,-1.57272 3.28616,-0.261 7.1e-4,0.44265 0.34937,1.36044 0.77475,2.03954 0.42539,0.67909 1.02049,1.71097 1.32245,2.29305 0.42581,0.82085 0.75575,1.03724 1.47028,0.96432 1.25811,-0.1284 1.78388,0.63793 1.85258,2.70022 0.0712,2.13688 0.82848,3.07609 2.74082,3.39918 1.85163,0.31283 6.05173,-0.72533 7.34829,-1.81631 1.52971,-1.28716 1.84336,-1.0024 0.88376,0.80236 -1.02401,1.92588 -1.04974,2.18257 -0.32285,3.22035 0.62669,0.89473 0.97178,0.97267 1.49819,0.33839 z m -9.10292,-10.0883 c 0,-0.89429 1.67254,-2.22996 2.62156,-2.09353 1.12055,0.16108 1.0958,1.22364 -0.042,1.80267 -1.94531,0.99 -2.57958,1.06151 -2.57958,0.29087 z m -17.63889,-3.1964 c 0,-0.73043 2.9828,-2.49742 4.21582,-2.49742 0.81515,0 0.94126,0.43931 0.2821,0.98268 -0.64987,0.53572 -4.49792,1.83161 -4.49792,1.51474 z m -4.40017,-1.80731 c 0.36655,-0.59309 -0.54467,-1.39566 -1.5846,-1.39566 -1.17425,0 -7.04971,-2.42014 -9.82667,-4.04767 -2.38662,-1.39877 -5.22192,-4.29421 -5.57239,-5.69061 -0.33125,-1.31981 0.38518,-3.842 1.6535,-5.82111 1.32568,-2.06863 2.06032,-2.72421 3.52269,-3.14361 3.00047,-0.86052 6.24051,1.55579 7.87632,5.87389 0.52438,1.3842 1.269,2.80234 1.65474,3.15142 0.62623,0.56674 0.7585,0.57751 1.23534,0.10067 0.47684,-0.47684 0.43197,-0.76931 -0.41903,-2.73156 -0.92391,-2.13036 -0.93519,-2.23498 -0.36913,-3.42202 0.81572,-1.71059 1.47957,-1.84826 2.81307,-0.58334 1.36262,1.29254 3.09706,2.20329 4.19256,2.20151 1.24396,-0.002 2.93207,-1.20058 3.44913,-2.44887 0.41375,-0.99888 0.38886,-1.22447 -0.22597,-2.04796 -1.04125,-1.39465 -3.22216,-1.99581 -5.68629,-1.56739 -1.22722,0.21335 -2.17242,0.22398 -2.41344,0.0271 -0.66716,-0.54495 -1.58108,-4.42268 -1.67626,-7.11232 -0.0792,-2.23743 -0.17569,-2.5605 -0.79221,-2.65159 -0.38613,-0.0571 -0.98692,0.21105 -1.33509,0.59577 -0.58504,0.64646 -0.59025,0.76055 -0.0687,1.50513 0.31037,0.44311 0.5643,1.39118 0.5643,2.10683 0,1.11668 0.7965,4.17702 1.55138,5.96073 0.14432,0.34102 -0.20904,1.01733 -0.95975,1.83692 l -1.18817,1.29718 -1.18575,-1.22338 c -1.67222,-1.7253 -3.71786,-2.62684 -5.96037,-2.62684 -2.47647,0 -3.96547,0.94433 -5.68572,3.60588 -3.28532,5.08303 -3.11239,8.26373 0.62836,11.55758 2.05493,1.80943 4.7554,3.41892 8.63732,5.14787 4.10184,1.82691 6.65661,2.3775 7.17086,1.54544 z m 3.46853,-17.94894 c -2.0427,-1.24558 -1.84721,-2.12745 0.47407,-2.13854 2.41851,-0.0116 3.87492,1.57914 2.24465,2.45163 -0.96183,0.51475 -1.45403,0.45807 -2.71872,-0.31309 z m 122.49198,-1.5824 c 3.92546,-1.79714 7.91736,-7.12174 8.494158,-11.32997 0.204234,-1.49004 0.52439,-1.95998 3.086897,-4.53105 4.656561,-4.67211 6.331458,-8.74314 6.33264,-15.39219 0.0011,-6.16869 -1.26945,-10.20901 -5.546841,-17.63889 -1.06117,-1.84326 -2.45859,-4.28721 -3.105379,-5.43099 -1.493231,-2.64061 -5.040295,-6.485595 -7.472215,-8.099815 -2.43316,-1.61504 -6.60762,-3.26378 -9.56949,-3.77957 -2.73963,-0.47709 -6.17503,-0.0839 -9.87261,1.12993 l -2.32958,0.76474 -3.07576,-1.45493 c -5.24507,-2.48108 -8.51989,-2.71928 -12.44428,-0.90514 -5.70513,2.63732 -8.41381,9.865295 -5.82312,15.538685 1.09704,2.4024 2.81852,4.31737 5.3721,5.97589 1.00218,0.65091 2.13301,1.62377 2.51296,2.16192 1.01206,1.43345 2.79086,5.06854 4.35622,8.90221 0.75572,1.85082 2.23632,4.79388 3.29021,6.54013 1.88814,3.12856 2.9353,5.59227 6.07267,14.2875 3.24247,8.98649 5.81017,12.18679 11.22636,13.99215 2.12942,0.7098 6.09347,0.36887 8.49506,-0.73061 z"
         id="path77"
         inkscape:connector-curvature="0" />
    </g>
  </g>
</svg>
